<?xml version="1.0" standalone="no"?>
<!DOCTYPE svg PUBLIC "-//W3C//DTD SVG 20010904//EN"
 "http://www.w3.org/TR/2001/REC-SVG-20010904/DTD/svg10.dtd">
<svg version="1.0" xmlns="http://www.w3.org/2000/svg"
 width="512.000000pt" height="512.000000pt" viewBox="0 0 512.000000 512.000000"
 preserveAspectRatio="xMidYMid meet">

<g transform="translate(0.000000,512.000000) scale(0.100000,-0.100000)"
fill="#FFFFFF" stroke="none">
<path d="M3318 4460 c-15 -11 -28 -34 -31 -55 -4 -25 -23 -55 -63 -98 -70 -76
-94 -125 -94 -197 0 -72 24 -121 96 -199 78 -85 79 -108 2 -188 -69 -73 -98
-128 -98 -188 0 -53 25 -85 68 -85 42 0 69 25 77 71 5 30 21 56 65 102 76 82
93 118 93 192 0 75 -22 122 -98 203 -74 81 -74 103 0 184 83 90 115 166 94
226 -9 28 -44 52 -73 52 -7 0 -25 -9 -38 -20z"/>
<path d="M3633 4383 c-12 -10 -31 -49 -42 -88 -11 -38 -34 -90 -51 -115 -37
-56 -38 -81 -1 -139 67 -106 84 -252 43 -366 -28 -75 -28 -96 1 -123 49 -46
105 -20 136 63 50 133 48 285 -5 409 -33 76 -33 96 0 173 37 86 43 142 20 171
-27 31 -74 38 -101 15z"/>
<path d="M2855 4298 c-14 -13 -30 -41 -35 -63 -14 -61 -12 -203 5 -265 31
-117 107 -230 154 -230 31 0 71 39 71 68 0 15 -19 65 -42 111 l-43 84 0 139
c0 135 -1 140 -24 159 -31 25 -54 24 -86 -3z"/>
<path d="M2290 3271 c-112 -23 -189 -117 -190 -231 0 -30 11 -196 25 -369 13
-173 23 -317 21 -319 -3 -2 -38 4 -78 13 -95 23 -353 32 -456 16 -102 -16
-238 -55 -322 -92 -68 -31 -106 -68 -119 -117 -6 -22 -18 -28 -94 -48 -161
-43 -346 -135 -477 -237 -99 -78 -123 -160 -71 -249 l20 -33 -115 -130 c-85
-96 -124 -150 -152 -207 l-37 -77 -98 -1 c-90 0 -100 -2 -122 -25 -14 -13 -25
-33 -25 -43 0 -33 125 -328 154 -363 16 -19 47 -46 69 -62 90 -61 -65 -57
2337 -57 2402 0 2247 -4 2337 57 22 16 53 43 69 62 29 35 154 330 154 363 0
10 -11 30 -25 43 l-24 25 -406 0 c-375 0 -430 3 -395 25 17 10 46 76 59 130 6
28 20 167 31 309 11 143 22 261 24 263 2 2 19 -5 37 -16 90 -52 259 -69 359
-36 175 58 301 203 331 379 17 101 7 315 -19 389 -50 147 -179 266 -331 307
-61 16 -186 14 -246 -4 -27 -9 -51 -16 -52 -16 -1 0 -2 40 -2 89 1 130 -35
196 -129 243 l-47 23 -980 1 c-539 1 -996 -1 -1015 -5z m1976 -157 c23 -11 37
-26 42 -46 12 -48 -114 -1662 -134 -1718 -33 -90 -139 -160 -243 -160 -69 0
-104 -69 -62 -121 l19 -24 521 -3 c287 -1 521 -5 521 -7 0 -3 -12 -35 -26 -72
-35 -89 -67 -131 -118 -154 -40 -18 -113 -19 -2226 -19 -2113 0 -2186 1 -2226
19 -51 23 -83 65 -118 154 -14 37 -26 69 -26 72 0 3 769 5 1710 5 1256 0 1716
3 1734 11 49 23 53 104 7 128 -11 6 -80 11 -159 11 l-139 0 -11 38 c-17 57
-61 119 -177 252 l-108 122 22 44 c57 118 8 198 -199 326 -115 72 -296 145
-397 162 -36 7 -41 12 -60 56 -16 37 -32 57 -65 77 l-45 28 -28 382 -29 383
20 27 c12 15 32 31 45 34 13 4 451 7 972 8 854 1 952 -1 983 -15z m509 -338
c67 -28 122 -82 157 -154 31 -63 33 -73 36 -198 4 -152 -8 -212 -60 -290 -86
-128 -262 -174 -402 -105 -34 17 -73 42 -86 56 l-24 26 23 307 c13 171 28 313
34 320 19 24 85 52 139 60 61 9 128 1 183 -22z m-2799 -546 c132 -23 304 -82
304 -104 0 -7 -25 -219 -55 -470 -30 -251 -55 -458 -55 -461 0 -3 -168 -5
-373 -5 l-373 0 -29 241 c-22 193 -32 245 -47 265 -27 33 -76 33 -108 -1 l-24
-25 27 -233 c15 -127 28 -235 27 -239 0 -5 -60 -8 -132 -8 l-133 0 -180 271
-179 271 34 29 c93 78 280 175 405 210 87 24 95 24 95 -1 0 -60 94 -80 133
-29 18 24 18 33 9 105 -7 52 -7 83 -1 90 15 19 144 63 244 84 102 21 314 26
411 10z m565 -270 c95 -32 158 -61 254 -118 71 -42 145 -99 145 -113 0 -5 -79
-128 -177 -274 l-176 -265 -135 0 -134 0 5 33 c3 17 25 192 47 387 23 195 43
361 45 368 6 18 28 15 126 -18z m-1811 -625 c49 -74 90 -137 90 -140 0 -3 -92
-5 -205 -5 -113 0 -205 2 -205 5 0 19 209 275 225 275 3 0 45 -61 95 -135z
m2330 25 c86 -99 127 -156 117 -166 -2 -2 -95 -3 -205 -2 l-202 3 92 138 c50
76 95 136 99 135 4 -2 49 -50 99 -108z"/>
</g>
</svg>
